/* XPM */
static char *_771_a7d2e147a15d5b537eeb48bb5e0d68a93b0131e15b00e85c7f57f2efa4fa300a[] = {
/* columns rows colors chars-per-pixel */
"64 64 28 1 ",
"  c #140D0D",
". c #1A181A",
"X c #250D0D",
"o c #260D0D",
"O c #270F0F",
"+ c #290D0D",
"@ c #310000",
"# c #380000",
"$ c #2E2A2B",
"% c #6C6E6E",
"& c #6D6E6E",
"* c #6D6E6F",
"= c #6E6E6F",
"- c #737374",
"; c #AF0000",
": c #B00000",
"> c #C50101",
", c #C70101",
"< c #C40202",
"1 c #C60202",
"2 c #FF0000",
"3 c #FF0000",
"4 c #CF0C0C",
"5 c #9F9C9F",
"6 c #B4B0B4",
"7 c #B4B1B4",
"8 c #BBB7BB",
"9 c None",
/* pixels */
"9999999999999999999999999999999999999999999999999999999999999999",
"9999999999999999999999999999999999999999999999999999999999999999",
"9999999999999999999999999999999999999999999999999999999999999999",
"9999999999999999999999999999999999999999999999999999999999999999",
"9999999999999999999999999999999999999999999999999999999999999999",
"9999999999999999999999999999999999999999999999999999999999999999",
"9999999999999999999999999999999999999999999999999999999999999999",
"9999999999999999999999999999999999999999999999999999999999999999",
"9999999999999999999999999999999999999999999999999999999999999999",
"9999999999999999999999999999999999999999999999999999999999999999",
"9999999999999999999999999999999999999999999999999999999999999999",
"9999999999999999999999999999999999999999999999999999999999999999",
"9999999999999999999999999999999999999999999999999999999999999999",
"9999999999999999999999999999999999999999999999999999999999999999",
"9999999999999999999999999999999999999999999999999999999999999999",
"9999999999999999999999999999999999999999999999999999999999999999",
"9999999999999999999999999999999999999999999999999999999999999999",
"9999999999999999999999999999999999999999999999999999999999999999",
"9999999999999999999999999999999999999999999999999999999999999999",
"9999999999999999999999999999999999999999999999999999999999999999",
"999999.99.9....99..99.9999.....9.99.9999999999999999999999999999",
"999999.99.9.9999.99.9.999999.999.99.99.9999999999999999999999999",
"999999....9...99....9.999999.999....9999999999999999999999999999",
"999999.99.9.9999.99.9.999999.999.99.99.9999999999999999999999999",
"999999.99.9....9.99.9....999.999.99.9999999999999999999999999999",
"9999999999999999999999999999999999999999999999999999999999999999",
"9999999999999999999999999999999999999999999999999999999999999999",
"9999999999999999999999999999999999999999999999999999999999999999",
"9999997666666666666666666666666666666666666666666666667999999999",
"999985-&**=****=****=****=****=****=****=****=****=**&-589999999",
"99995$o++X X++X X++X X++X X++X X++X X++X X++X X++X X++o$59999999",
"9997-O:,,;@;,,;@;,,;@;,,;@;,,;@;,,;@;,,;@;,,;@;,,;@;,,:O-7999999",
"9996%+,441#1441#1441#1441#1441#1441#1441#1441#1441#144,+%6999999",
"9996*+>22<#<22<#<22<#<22<#<22<#<22<#<22<#<22<#<22<#<22>+*6999999",
"9996*+>33<#<33<#<33<#<33<#<33<#<33<#<33<#<33<#<33<#<33>+*6999999",
"9996*+>33<#<33<#<33<#<33<#<33<#<33<#<33<#<33<#<33<#<33>+*6999999",
"9996*+>22<#<22<#<22<#<22<#<22<#<22<#<22<#<22<#<22<#<22>+*6999999",
"9996%+,441#1441#1441#1441#1441#1441#1441#1441#1441#144,+%6999999",
"9997-O:,,;@;,,;@;,,;@;,,;@;,,;@;,,;@;,,;@;,,;@;,,;@;,,:O-7999999",
"99995$o++X X++X X++X X++X X++X X++X X++X X++X X++X X++o$59999999",
"999985-&**=****=****=****=****=****=****=****=****=**&-589999999",
"9999997666666666666666666666666666666666666666666666667999999999",
"9999999999999999999999999999999999999999999999999999999999999999",
"9999999999999999999999999999999999999999999999999999999999999999",
"9999999999999999999999999999999999999999999999999999999999999999",
"9999999999999999999999999999999999999999999999999999999999999999",
"9999999999999999999999999999999999999999999999999999999999999999",
"9999999999999999999999999999999999999999999999999999999999999999",
"9999999999999999999999999999999999999999999999999999999999999999",
"9999999999999999999999999999999999999999999999999999999999999999",
"9999999999999999999999999999999999999999999999999999999999999999",
"9999999999999999999999999999999999999999999999999999999999999999",
"9999999999999999999999999999999999999999999999999999999999999999",
"9999999999999999999999999999999999999999999999999999999999999999",
"9999999999999999999999999999999999999999999999999999999999999999",
"9999999999999999999999999999999999999999999999999999999999999999",
"9999999999999999999999999999999999999999999999999999999999999999",
"9999999999999999999999999999999999999999999999999999999999999999",
"9999999999999999999999999999999999999999999999999999999999999999",
"9999999999999999999999999999999999999999999999999999999999999999",
"9999999999999999999999999999999999999999999999999999999999999999",
"9999999999999999999999999999999999999999999999999999999999999999",
"9999999999999999999999999999999999999999999999999999999999999999",
"9999999999999999999999999999999999999999999999999999999999999999"
};
